<?xml version="1.0" encoding="UTF-8" standalone="no"?>
<!-- Creator: CorelDRAW -->

<svg
   xmlns:dc="http://purl.org/dc/elements/1.1/"
   xmlns:cc="http://creativecommons.org/ns#"
   xmlns:rdf="http://www.w3.org/1999/02/22-rdf-syntax-ns#"
   xmlns:svg="http://www.w3.org/2000/svg"
   xmlns="http://www.w3.org/2000/svg"
   xmlns:sodipodi="http://sodipodi.sourceforge.net/DTD/sodipodi-0.dtd"
   xmlns:inkscape="http://www.inkscape.org/namespaces/inkscape"
   xml:space="preserve"
   width="246.33018mm"
   height="237.1938mm"
   style="clip-rule:evenodd;fill-rule:evenodd;image-rendering:optimizeQuality;shape-rendering:geometricPrecision;text-rendering:geometricPrecision"
   viewBox="0 0 246.33018 237.1938"
   version="1.1"
   id="svg34"
   sodipodi:docname="Baby-6.svg"
   inkscape:version="0.92.3 (2405546, 2018-03-11)"><metadata
   id="metadata38"><rdf:RDF><cc:Work
       rdf:about=""><dc:format>image/svg+xml</dc:format><dc:type
         rdf:resource="http://purl.org/dc/dcmitype/StillImage" /><dc:title></dc:title></cc:Work></rdf:RDF></metadata><sodipodi:namedview
   pagecolor="#ffffff"
   bordercolor="#666666"
   borderopacity="1"
   objecttolerance="10"
   gridtolerance="10"
   guidetolerance="10"
   inkscape:pageopacity="0"
   inkscape:pageshadow="2"
   inkscape:window-width="1920"
   inkscape:window-height="1017"
   id="namedview36"
   showgrid="false"
   showborder="false"
   fit-margin-top="0"
   fit-margin-left="0"
   fit-margin-right="0"
   fit-margin-bottom="0"
   inkscape:zoom="0.29734127"
   inkscape:cx="502.85721"
   inkscape:cy="369.08105"
   inkscape:window-x="-4"
   inkscape:window-y="9"
   inkscape:window-maximized="1"
   inkscape:current-layer="svg34" />
 <defs
   id="defs4">
  <style
   type="text/css"
   id="style2">
   <![CDATA[
    .fil1 {fill:#1F1A17}
    .fil0 {fill:#BAB3D6}
    .fil3 {fill:#DA251D}
    .fil2 {fill:#F7C5B4}
   ]]>
  </style>
 </defs>
 <g
   id="Ebene_x0020_1"
   transform="translate(-15.452363,34.5411)">
  <metadata
   id="CorelCorpID_0Corel-Layer" />
  <path
   class="fil0"
   d="m 133.017,129.777 c 11.7251,-4.3816 23.4501,-8.7632 35.1752,-13.1449 11.5451,-10.4909 19.0578,-24.1855 17.6996,-44.9283 22.665,-3.1318 34.4398,7.2817 35.3248,31.2408 20.6172,9.5797 28.3689,19.2027 23.2553,28.8691 23.577,18.815 10.9321,39.7648 -11.8549,61.3123 -24.3901,16.1641 -45.6441,8.5164 -63.7619,-22.9432 -17.6857,1.3463 -29.6317,-12.1224 -35.8381,-40.4058 z"
   id="path7"
   inkscape:connector-curvature="0"
   style="fill:#bab3d6" />
  <path
   class="fil1"
   d="m 225.812,101.301 c 23.7134,4.1664 24.8559,21.2325 21.8259,26.577 7.1873,1.6866 14.9072,10.9111 12.9219,20.1034 8.3438,22.505 -27.6801,56.5396 -57.4408,54.5912 -13.3296,-1.243 -30.9018,-14.3944 -35.555,-26.9878 -16.777,6.4389 -33.3796,-25.1974 -35.5511,-38.0334 l 5.1714,-2.6585 c 6.0747,24.0702 33.2679,54.0514 56.2219,10.1656 -3.1432,10.0277 -10.4253,24.4562 -20.4696,27.7948 5.8453,10.3136 14.4262,18.187 27.846,22.9598 71.2059,7.052 72.8028,-104.028 1.5999,-39.6914 11.6719,-17.1641 19.1435,-22.5596 37.2642,-27.8553 6.0895,-3.5486 -12.9562,-49.7329 -60.9895,8.8402 18.3011,-25.4416 27.9199,-35.9637 39.5412,-37.4181 -0.7502,-28.7169 -26.3306,-31.334 -28.4343,-29.1601 2.8671,-5.26 39.3144,0.1011 36.0479,30.7726 z"
   id="path9"
   inkscape:connector-curvature="0"
   style="fill:#1f1a17" />
  <polygon
   class="fil2"
   points="38.9834,63.8389 21.968,55.0828 31,27.5845 43.0995,41.3724 "
   id="polygon11"
   style="fill:#f7c5b4" />
  <polygon
   class="fil2"
   points="204.404,41.0862 192.542,13.4995 204.046,-1.0938 217.657,28.595 "
   id="polygon13"
   style="fill:#f7c5b4" />
  <path
   class="fil2"
   d="m 118.593,-6.7674 c 39.4964,-6.1124 76.5772,20.3549 82.5451,58.9181 5.9679,38.5632 -21.3778,75.0009 -60.8742,81.1133 C 100.7675,139.3763 63.6868,112.9091 57.7188,74.3459 51.7509,35.7826 79.0966,-0.6551 118.593,-6.7674 Z"
   id="path15"
   inkscape:connector-curvature="0"
   style="fill:#f7c5b4" />
  <path
   class="fil1"
   d="M 84.5169,7.9844 73.7122,2.0165 c 20.7522,-17.6201 49.0083,-25.2239 74.7572,-12.7259 -22.8509,-0.8702 -45.5872,5.7163 -63.9525,18.6938 z m -19.6146,1.2878 3.8299,3.1073 4.7341,0.4686 c -15.9174,14.186 -22.7341,37.4671 -18.8017,62.8774 -4.9183,-6.1149 -0.9839,17.678 2.7322,8.7905 9.9148,33.3059 39.6651,53.5624 78.2771,47.5869 42.6065,-6.5937 68.7681,-41.7296 62.6638,-81.174 C 194.2158,24.2946 177.2844,5.0061 153.6038,-2.6826 l 4.6059,-5.7553 c 23.5812,11.1662 41.4237,33.0994 45.3671,58.5801 6.297,40.69 -24.2537,80.4643 -68.2058,87.2662 C 91.4189,144.2103 50.2747,115.5314 43.9776,74.8413 40.3113,51.1504 49.0518,26.6645 64.9023,9.2722 Z"
   id="path17"
   inkscape:connector-curvature="0"
   style="fill:#1f1a17" />
  <rect
   class="fil3"
   transform="matrix(1.17239,-0.181436,0.183819,1.18779,105.727,33.3826)"
   width="25.044001"
   height="34.226799"
   id="rect19"
   x="0"
   y="0"
   style="fill:#da251d" />
  <path
   class="fil1"
   d="m 120.874,16.0635 c -1.9972,0.309 -3.458,1.6471 -3.2519,2.9785 0.206,1.3315 2.0029,2.1653 4.0002,1.8562 1.9972,-0.309 3.458,-1.6471 3.2519,-2.9785 -0.206,-1.3315 -2.0029,-2.1653 -4.0002,-1.8562 z m -9.6695,1.4964 c 1.9972,-0.3091 3.7941,0.5248 4.0002,1.8562 0.206,1.3315 -1.2548,2.6695 -3.252,2.9786 -1.9973,0.3091 -3.7941,-0.5248 -4.0002,-1.8563 -0.206,-1.3314 1.2547,-2.6694 3.252,-2.9785 z"
   id="path21"
   inkscape:connector-curvature="0"
   style="fill:#1f1a17" />
  <path
   class="fil1"
   d="m 203.272,46.951 c -3.2032,-11.3922 12.4846,-13.3596 9.643,-21.7772 -0.9649,-4.4587 -7.7545,-12.5074 -10.2052,-14.628 -6.3097,-6.7222 -8.7622,5.2762 -9.2509,11.6549 -0.3467,-0.0547 -2.1286,-6.1134 -2.4754,-6.1682 -1.7149,-12.5857 11.9042,-29.4598 21.1788,-16.6105 2.8426,2.4599 7.3342,21.203 8.4534,26.3746 2.8868,11.2757 -19.3262,10.8635 -17.3437,21.1544 z"
   id="path23"
   inkscape:connector-curvature="0"
   style="fill:#1f1a17" />
  <path
   class="fil1"
   d="M 41.6275,68.5618 C 41.3484,57.4525 27.9553,60.4893 28.2023,52.1416 27.8174,47.8781 29.7817,38.5052 31.5001,35.894 c 4.0546,-7.8499 8.4314,2.9053 10.7665,8.4571 0.315,-0.1504 1.7289,-3.3485 2.044,-3.4991 C 41.6739,34.5836 29.878,15.2703 25.3749,23.9884 c -1.9932,3.029 -10.3518,21.3698 -9.9053,26.315 -0.666,14.6986 24.3081,10.7614 26.1579,18.2584 z"
   id="path25"
   inkscape:connector-curvature="0"
   style="fill:#1f1a17" />
  <path
   class="fil1"
   d="m 122.241,32.6146 -5.2791,1.1194 c 0.4677,3.0217 -0.2203,6.5737 0.1538,8.9911 -8.1544,1.2619 -5.2061,13.2941 -0.0569,13.1893 2.4451,-0.0496 2.419,-6.355 4.9515,-6.6741 3.3275,-0.4191 5.2648,4.8351 7.5419,5.2249 3.2005,0.5478 6.2578,-13.7469 -4.8711,-12.0247 -0.8849,-1.7195 -2.1596,-8.0128 -2.4401,-9.8259 z m 58.8491,38.8192 c 10.2307,66.1079 -97.157,81.0478 -107.689,12.9919 -10.03,-64.8122 97.1641,-81.001 107.689,-12.9919 z"
   id="path27"
   inkscape:connector-curvature="0"
   style="fill:#1f1a17" />
  <path
   class="fil1"
   d="m 157.008,-9.1934 c 0.0837,-1.8741 -1.0931,-3.0027 -3.5317,-3.3855 -5.4893,6.3152 -10.9788,12.6307 -16.4683,18.9461 7.5182,-4.3551 14.4285,-9.3044 20,-15.5606 z m 6.1528,21.2337 c 1.9539,-1.5839 1.9895,-3.559 0.6349,-5.1812 -8.2903,-1.135 -18.9185,2.6339 -27.2089,1.4991 7.9908,2.7379 19.1281,3.1307 26.574,3.6821 z M 71.2316,31.2196 C 69.4694,30.4861 68.6994,29.0485 68.921,26.9072 75.0508,20.901 84.5479,19.2504 92.4372,16.2209 85.4916,21.0268 77.3463,25.2427 71.2316,31.2196 Z M 67.529,8.781 C 66.7996,6.4819 67.5016,3.2049 69.7929,2.6405 76.9346,7.001 86.9302,11.1265 94.0717,15.4872 85.9633,13.1373 75.2661,12.2891 67.529,8.781 Z m 91.5259,13.0655 c -0.8403,1.8896 -2.1114,2.3321 -4.8979,2.3214 -8.5065,-2.8071 -11.4637,-9.776 -19.9702,-12.5829 10.7936,1.3515 17.1078,5.6048 24.8681,10.2615 z m -77.4636,9.6606 c 0.9767,2.5799 3.9773,1.7388 6.6114,0.7466 1.5843,-5.0118 2.339,-9.4721 7.5878,-15.4026 -9.4707,4.7547 -10.5103,10.8534 -14.1992,14.656 z"
   id="path29"
   inkscape:connector-curvature="0"
   style="fill:#1f1a17" />
  <path
   class="fil1"
   d="m 147.646,-30.5347 c -2.1654,-1.3354 -4.331,-2.6709 -6.4966,-4.0064 -10.5446,9.2948 -16.723,20.7894 -18.9087,34.2963 8.4684,-10.0967 16.937,-20.1933 25.4053,-30.2899 z M 64.0217,-15.326 c 1.6606,-1.9276 3.3212,-3.8551 4.9816,-5.7827 12.4474,6.2594 21.7302,15.4171 28.3912,26.9763 C 86.2703,-1.197 75.146,-8.2615 64.0217,-15.326 Z"
   id="path31"
   inkscape:connector-curvature="0"
   style="fill:#1f1a17" />
 </g>
</svg>